<?xml version="1.0" encoding="UTF-8"?>
<svg version="1.1" xmlns="http://www.w3.org/2000/svg" width="32" height="32">
<path d="M0 0 C4.8846525 2.26787438 7.73212562 5.1153475 10 10 C10.75381535 15.5997712 10.77303575 20.33499991 8.375 25.5 C3.80134327 30.3143755 0.6912538 32.25156236 -6 32.5 C-12.6912538 32.25156236 -15.80134327 30.3143755 -20.375 25.5 C-22.77303575 20.33499991 -22.75381535 15.5997712 -22 10 C-17.52212837 0.3553534 -9.85292056 -1.32635469 0 0 Z " fill="#209D9E" transform="translate(22,0)"/>
<path d="M0 0 C1.32 0.33 2.64 0.66 4 1 C4 1.99 4 2.98 4 4 C3.34 4 2.68 4 2 4 C2.33 4.556875 2.66 5.11375 3 5.6875 C4.18664572 8.43161823 4.44406789 10.03954738 4 13 C2.375 15.3125 2.375 15.3125 0 17 C-3.6717087 17.61195145 -5.28813568 17.48706506 -8.375 15.375 C-10.48706506 12.28813568 -10.61195145 10.6717087 -10 7 C-8.375 4.625 -8.375 4.625 -6 3 C-2.75 2.75 -2.75 2.75 0 3 C0 2.01 0 1.02 0 0 Z " fill="#CAD4D4" transform="translate(19,4)"/>
<path d="M0 0 C3 0.125 3 0.125 4 1.125 C4.1875 4.0625 4.1875 4.0625 4 7.125 C3.34 7.785 2.68 8.445 2 9.125 C-1.29714793 8.79528521 -2.6226839 8.5023161 -5 6.125 C-4.27477017 0.17811542 -4.27477017 0.17811542 0 0 Z " fill="#29A0A1" transform="translate(16,9.875)"/>
<path d="M0 0 C1.32 0.33 2.64 0.66 4 1 C4 1.99 4 2.98 4 4 C3.34 4 2.68 4 2 4 C2.33 4.556875 2.66 5.11375 3 5.6875 C4.1309601 8.30284522 4.15662974 10.1806646 4 13 C3.01 12.67 2.02 12.34 1 12 C0.67 10.35 0.34 8.7 0 7 C-1.65 6.67 -3.3 6.34 -5 6 C-5.33 5.01 -5.66 4.02 -6 3 C-4.02 3 -2.04 3 0 3 C0 2.01 0 1.02 0 0 Z " fill="#B2CCCC" transform="translate(19,4)"/>
<path d="M0 0 C6.10068259 0.33276451 6.10068259 0.33276451 8.9375 2.4375 C10 4 10 4 10 6 C9.01 6 8.02 6 7 6 C6.67 5.34 6.34 4.68 6 4 C4.02 4 2.04 4 0 4 C-0.33 4.66 -0.66 5.32 -1 6 C-1.99 6 -2.98 6 -4 6 C-2.84826645 3.53199953 -1.95216435 1.95216435 0 0 Z " fill="#ADCBCB" transform="translate(13,22)"/>
<path d="M0 0 C5.5 -0.36666667 5.5 -0.36666667 7.875 1.375 C9 3 9 3 9 5 C8.01 5 7.02 5 6 5 C5.34 4.01 4.68 3.02 4 2 C1.94996045 0.80767387 1.94996045 0.80767387 0 0 Z " fill="#C3D2D2" transform="translate(14,23)"/>
<path d="M0 0 C0.33 0 0.66 0 1 0 C1.125 2.375 1.125 2.375 1 5 C-1 7 -1 7 -4.125 7.125 C-5.548125 7.063125 -5.548125 7.063125 -7 7 C-6.401875 6.773125 -5.80375 6.54625 -5.1875 6.3125 C-2.44106051 4.66463631 -1.52827786 2.76545517 0 0 Z " fill="#D3D7D7" transform="translate(21,13)"/>
<path d="M0 0 C1.485 0.99 1.485 0.99 3 2 C3 2.66 3 3.32 3 4 C4.65 4 6.3 4 8 4 C8 4.33 8 4.66 8 5 C2.375 5.25 2.375 5.25 -1 3 C-0.67 2.01 -0.34 1.02 0 0 Z " fill="#B5CDCD" transform="translate(11,16)"/>
</svg>
