<?xml version="1.0" encoding="UTF-8"?><svg id="Capa_1" xmlns="http://www.w3.org/2000/svg" viewBox="0 0 258.61 142.28"><defs><style>.cls-1{fill:#494949;}.cls-2{fill:#109a9d;}</style></defs><path class="cls-1" d="M49.34,61.65c-.93-.04-1.79-.08-2.57-.08-4.91,0-6.35,1.21-6.35,5.45v12.15h-3.39v-12.19c0-7.09,3.66-9.15,12.35-8.77l-.04,3.43Z"/><path class="cls-1" d="M69.9,76.78c-1.99,1.71-4.64,2.57-7.25,2.57-5.42,0-10.83-3.55-10.83-10.6v-.16c0-7.13,5.3-10.6,10.64-10.6s10.83,3.58,10.83,10.6v10.48h-3.39v-2.3ZM62.7,76c9.78-.19,9.54-14.69-.12-14.69-9.86.12-9.86,14.8.12,14.69Z"/><path class="cls-1" d="M80.47,60.35c1.99-1.71,4.64-2.57,7.25-2.57,5.41,0,10.83,3.55,10.83,10.6v.16c0,7.13-5.3,10.63-10.63,10.63-2.73,0-5.42-.9-7.44-2.69v12.62h-3.39v-31.05h3.39v2.3ZM87.83,61.13c-3.7,0-7.36,2.42-7.36,7.25s3.62,7.44,7.29,7.44,7.36-2.49,7.4-7.44c0-4.83-3.66-7.25-7.32-7.25Z"/><path class="cls-1" d="M104.14,52.22c.97,0,1.95.62,1.95,1.95s-.97,1.95-1.95,1.95-1.99-.66-1.99-1.95.97-1.95,1.99-1.95ZM102.43,58.45h3.39v21.07h-3.39v-21.07Z"/><path class="cls-1" d="M127.78,76.8c-1.99,1.71-4.64,2.57-7.25,2.57-5.41,0-10.83-3.55-10.83-10.6v-.16c0-7.13,5.3-10.64,10.63-10.64,2.73,0,5.42.9,7.44,2.69v-8.88h3.39v27.31h-3.39v-2.3ZM120.42,76.02c3.7,0,7.36-2.41,7.36-7.24s-3.62-7.44-7.29-7.44-7.36,2.49-7.4,7.44c0,4.83,3.66,7.24,7.32,7.24Z"/><path class="cls-2" d="M145.85,79.56c-5.37,0-10.79-3.58-10.79-10.63v-.16c0-7.09,5.3-10.6,10.6-10.6,1.64,0,3.27.31,4.75.97l.58-1.09c-.31-.47-.51-1.09-.51-1.83v-.04c0-2.22,1.64-3.27,3.31-3.27s3.35,1.09,3.35,3.27v.04c0,2.1-1.52,3.2-3.12,3.27l-.78,1.44c1.95,1.79,3.27,4.4,3.27,7.83v.16c0,7.13-5.3,10.63-10.67,10.63ZM153.29,90.49c-.78-3.74-3.97-5.61-7.13-5.61s-6.27,1.87-6.97,5.61h-3.7c.74-6,5.61-8.92,10.48-8.92s9.97,3,10.75,8.92h-3.43ZM145.77,76.17c3.7,0,7.36-2.41,7.36-7.24s-3.62-7.44-7.29-7.44-7.36,2.49-7.4,7.44c0,4.83,3.66,7.24,7.32,7.24Z"/><path class="cls-1" d="M181.35,72.53c-1.52,4.56-5.88,6.86-10.21,6.86-5.38,0-10.75-3.51-10.75-10.56s5.53-10.56,10.95-10.56,10.95,3.7,10.48,11.37h-12.62v-3.39l8.88-.04c-.66-3-3.66-4.56-6.74-4.56-3.7,0-7.56,2.3-7.56,7.21,0,4.64,3.9,7.13,7.67,7.13,2.65,0,5.22-1.25,6.31-3.86l3.58.39Z"/><path class="cls-1" d="M202.72,61.68h-11.14c-4.52,0-4.56,5.45,0,5.45h6.04c9.08,0,8.69,12.23,0,12.23h-11.76v-3.39h11.65c4.56,0,4.52-5.45,0-5.45h-6.04c-8.69,0-9.08-12.23,0-12.23h11.22l.04,3.39Z"/><path class="cls-1" d="M221.58,79.41c-8.69.39-12.35-2.84-12.35-9.93v-7.75h-2.84v-3.39h2.84v-5.3h3.39v5.3h5.77v3.39h-5.77v7.71c0,4.91,1.91,6.93,8.92,6.54l.04,3.43Z"/></svg>